<svg xmlns="http://www.w3.org/2000/svg" viewBox="0 0 49.22 49.22"><defs><style>.cls-1{fill:#eae6f3;}.cls-2{fill:#6763ad;}</style></defs><g id="Layer_2" data-name="Layer 2"><g id="Layer_1-2" data-name="Layer 1"><circle class="cls-1" cx="24.61" cy="24.61" r="24.61"/><path class="cls-2" d="M16.26,35.09a7.26,7.26,0,0,1-.82-.3A2.49,2.49,0,0,1,14.2,32a10.82,10.82,0,0,1,1.59-3.69A10.52,10.52,0,0,1,21,24.25l.2-.07,0,0a5.57,5.57,0,0,1-2.18-4.9,5.37,5.37,0,0,1,2-3.81A5.57,5.57,0,1,1,28,24.14l1.17.49a.83.83,0,0,1,.49.86.78.78,0,0,1-.64.69,1.2,1.2,0,0,1-.59-.09,9.68,9.68,0,0,0-2.18-.68,8.81,8.81,0,0,0-5,.51,9,9,0,0,0-5.46,6.46.85.85,0,0,0,.84,1.07h10A.83.83,0,0,1,27.06,35l-.16.08Zm4.42-15.37a3.93,3.93,0,1,0,3.91-3.95A3.94,3.94,0,0,0,20.68,19.72Z"/><path class="cls-2" d="M31,35.09a.91.91,0,0,1-.59-.6,1.43,1.43,0,0,1,0-.29V32H28.14a.82.82,0,1,1,0-1.64h2.24V28.14a.82.82,0,0,1,.81-.83.82.82,0,0,1,.83.83v2.24h.22c.59,0,1.19,0,1.78,0a1,1,0,0,1,1.07.62v.41A1,1,0,0,1,34,32c-.59,0-1.18,0-1.77,0H32v2.17a1,1,0,0,1,0,.3c-.06.32-.31.47-.58.6Z"/></g></g></svg>