<svg id="Layer_1" data-name="Layer 1" xmlns="http://www.w3.org/2000/svg" viewBox="0 0 50 50"><defs><style>.cls-1{fill:#fde5df;}.cls-2{fill:#f47c70;}</style></defs><circle class="cls-1" cx="25" cy="25" r="24.61"/><path class="cls-2" d="M25.8,9.22A15.82,15.82,0,1,1,10,24.89,15.81,15.81,0,0,1,25.8,9.22Zm0,29.53A13.71,13.71,0,1,0,12.1,25.19,13.68,13.68,0,0,0,25.82,38.75Z"/><path class="cls-2" d="M19.25,33.72a2.14,2.14,0,0,1-2-2.85c.56-1.61,1.14-3.2,1.71-4.8l1.35-3.78a4.28,4.28,0,0,1,2.74-2.73c2.81-1,5.61-2,8.42-3a2.07,2.07,0,0,1,2.88,1.49,2.19,2.19,0,0,1-.07,1.16Q32.79,23.59,31.2,28a4,4,0,0,1-2.52,2.48c-2.87,1-5.75,2.06-8.63,3.09A7.13,7.13,0,0,1,19.25,33.72ZM25.8,22.93A2.11,2.11,0,1,0,27.91,25,2.13,2.13,0,0,0,25.8,22.93Z"/></svg>