<svg id="Layer_1" data-name="Layer 1" xmlns="http://www.w3.org/2000/svg" viewBox="0 0 50 50"><defs><style>.cls-1{fill:#dcf1f4;}.cls-2{fill:#63c7cd;}</style></defs><circle class="cls-1" cx="25" cy="25" r="24.61"/><path class="cls-2" d="M13.12,37.59a.72.72,0,0,1-.53-.18.78.78,0,0,1-.19-.55c0-7.9,0-15.79,0-23.69a.71.71,0,0,1,.43-.77l18.3,0c.23.12.35.34.35.75q0,9.61,0,19.22a.74.74,0,0,1-.23.57Q29.11,35.12,27,37.3a1,1,0,0,1-.72.29H13.12Zm2-1.12h9.22A1.57,1.57,0,0,0,25.9,34.9V32.57a.63.63,0,0,1,.63-.63h3.85V14.63a1.11,1.11,0,0,0-1.11-1.11H14.63a1.11,1.11,0,0,0-1.1,1.11V34.9A1.57,1.57,0,0,0,15.1,36.47Zm11.91-1,2.56-2.42H27Z"/><path class="cls-2" d="M35.51,37.6a.45.45,0,0,1-.37-.18,7,7,0,0,1-1.5-2.82,6.42,6.42,0,0,1-.15-1.35c0-3.66,0-7.34,0-11V19.1c0-.45.19-.65.64-.65h.8v-1.7a.55.55,0,0,1,1.09,0c0,.34,0,.68,0,1v.68H37a.65.65,0,0,1,.65.44l0,15.06,0,.16a2.33,2.33,0,0,1-.08.38l-.11.29A8.75,8.75,0,0,1,36.87,36a8.84,8.84,0,0,1-.77,1.18l-.12.17A.56.56,0,0,1,35.51,37.6Zm-.85-3.52a4.27,4.27,0,0,0,.71,1.74l.17.24.16-.25a4.11,4.11,0,0,0,.7-1.73l0-.23Zm-.06-1.36h1.87V24.07H34.6Zm0-9.78h1.87V19.56H34.6Z"/><path class="cls-2" d="M21.94,24.05a.54.54,0,0,1-.54-.55v-.95h-.93A.54.54,0,0,1,19.9,22a.55.55,0,0,1,.58-.54h1.74c.4,0,.67-.22.68-.56a.53.53,0,0,0-.15-.39.69.69,0,0,0-.53-.2h-.5a3,3,0,0,1-.42,0A1.67,1.67,0,0,1,21.09,17l.3-.1V16a.55.55,0,0,1,.55-.57.55.55,0,0,1,.55.57V17h.93a.55.55,0,1,1,0,1.1H21.69a.73.73,0,0,0-.54.19.53.53,0,0,0-.15.39c0,.27.19.56.69.57h.5a2.47,2.47,0,0,1,.39,0,1.67,1.67,0,0,1,.24,3.25l-.32.11v.9a.54.54,0,0,1-.55.56Z"/><path class="cls-2" d="M16,27.05A.55.55,0,0,1,15.8,26L16,26H27.89a.54.54,0,0,1,.6.54.56.56,0,0,1-.14.39.64.64,0,0,1-.46.17H16Z"/><path class="cls-2" d="M16,30a.54.54,0,0,1-.58-.46A.56.56,0,0,1,15.8,29,.78.78,0,0,1,16,29H27.89a.67.67,0,0,1,.46.16.59.59,0,0,1,.14.4.54.54,0,0,1-.6.53H16Z"/><path class="cls-2" d="M16,33a.69.69,0,0,1-.49-.17.56.56,0,0,1-.14-.39c0-.33.24-.54.63-.54h5.83a.68.68,0,0,1,.49.17.56.56,0,0,1,.14.39.55.55,0,0,1-.63.54H16Z"/></svg>