<svg xmlns="http://www.w3.org/2000/svg" viewBox="0 0 855.1 978.3"><defs><style>.cls-1{fill:#58585a;}</style></defs><g id="Layer_2" data-name="Layer 2"><g id="Layer_1-2" data-name="Layer 1"><path class="cls-1" d="M.2,148.9C.2,132.3.7,115.6,0,99c-.2-6.6,2.8-10.4,7.2-13.6C20,75.9,32.6,66.1,46,57.6c18.1-11.4,38-19.2,58.4-25.7a443.4,443.4,0,0,1,72.9-17c17.6-2.5,35.1-5,52.7-6.9,15.8-1.8,31.8-2.9,47.7-4.1,12.8-.9,25.7-1.4,38.6-2,8.3-.4,16.5-.9,24.8-1C391.6.5,442.2,0,492.7,0c18,0,36.1,1.1,54.1,2q21.5,1.1,42.9,3c14.7,1.3,29.4,3.2,44.1,4.8a656.4,656.4,0,0,1,94.1,17.1,397.8,397.8,0,0,1,59.7,20.7,248,248,0,0,1,48.3,28.2c5.3,4,10.1,8.5,15.3,12.6,3,2.4,3.8,5.3,3.7,9.1-.1,33.7-.2,67.5.1,101.3.1,5.4-1.5,9.2-5.5,12.4-12.8,9.9-25.2,20.7-38.6,29.8-21.8,14.7-45.8,25.4-70.5,34.5-28.8,10.6-58.6,17.6-88.6,23.4-16.7,3.2-33.7,5-50.6,7.1-13.5,1.7-27.1,3-40.7,4-16.3,1.3-32.6,2.6-48.9,3-38.7.9-77.3,1.7-116,1.9-19.4.1-38.7-1-58.1-1.9-13.8-.7-27.6-1.5-41.4-3.1-24.3-2.6-48.6-5.3-72.7-9-34.8-5.5-69.2-12.8-102.3-24.9a523.8,523.8,0,0,1-53-22.1A282.3,282.3,0,0,1,9,214.1C1.9,208-.3,202,.1,193.4.6,178.6.2,163.7.2,148.9Z"/><path class="cls-1" d="M854.9,523.8V530c0,111.6-.2,223.1.2,334.7,0,8.3-3,13.6-8.8,17.9-12.7,9.4-25.1,19.3-38.6,27.3a275,275,0,0,1-43.2,21.3c-21.8,8.2-44.1,15.4-66.6,21.6-17.2,4.7-34.9,7.3-52.4,10.6-12.4,2.3-24.9,4.2-37.4,5.8-10.7,1.4-21.5,2.2-32.4,3.2-15,1.4-30.1,2.7-45.2,3.9-6.8.6-13.5,1-20.3,1.1-45.2.4-90.5.8-135.7.9-13.7,0-27.4-1-41.1-2-16.4-1.1-32.9-2.1-49.2-4-21.2-2.5-42.3-5.2-63.3-9-24.4-4.3-48.8-9.2-73-15a439.4,439.4,0,0,1-73.6-25.6,307.2,307.2,0,0,1-54.5-31.4C13.6,886.8,8,881.3,2.3,876a8.3,8.3,0,0,1-2-5.2c-.2-6.3-.1-12.6-.1-18.9V523.6L15.9,537c16.9,14.2,36,24.6,56,33.5,23.4,10.4,47.9,17.6,72.8,23.2,15.5,3.5,31.2,6,46.8,8.6s28.2,4.1,42.4,5.9c8.4,1,17,1.4,25.6,2.1l53.7,3.9h2c16.4.3,32.8.8,49.3,1,39.5.4,79.1.8,118.7.9,13.7.1,27.5-.5,41.2-.9s28.8-1.1,43.1-2.1c17.3-1.1,34.6-2.1,51.8-4,19.2-2.2,38.3-5.2,57.4-7.8a432.5,432.5,0,0,0,82.4-20c28.7-10,55.4-23.6,78.9-43.2Zm-33.8,353V634.7h-5.7c-19.3,0-38.6.2-57.9-.1-4.4,0-6.5,1.6-8.2,5.4q-14.4,32.6-29,65.1c-6,13.3-12,26.6-17.9,39.9-1.4,3-2.6,6-4.3,9.8-1.7-3.5-3.1-6-4.3-8.5q-14.2-32.1-28.6-64.2c-6.3-14.3-13.1-28.3-19.1-42.7-1.6-3.7-3.3-4.8-7.1-4.7H574.5V876.6h57.4V718a109.8,109.8,0,0,1,6,12.5l36.3,85.9c1.1,2.6,2.6,3.8,5.7,3.8,10.9-.2,21.9,0,32.9-.3a7.1,7.1,0,0,0,5.2-3.2c2.2-4,3.7-8.4,5.5-12.6,10.1-23.8,20.1-47.7,30.2-71.5,2.1-5,4.4-9.9,6.6-14.9l.9.3V876.8Zm-545.5,0V635l-4.7-.3c-19.8,0-39.6.2-59.4-.1-4,0-5.5,1.9-6.9,4.9-7.5,17.1-15,34.1-22.6,51.2-6.2,14.1-12.3,28.3-18.6,42.3-3.2,7.2-6.5,14.2-10.2,22.1-1.5-3.5-2.7-6.1-3.9-8.7L129.2,702q-14.1-31.7-28.1-63.4c-1.3-3-3.2-4-6.5-3.9h-60L30,635V876.7H86.3v-160c6.1,12.2,11.3,24.6,16.5,36.9,8.9,20.9,17.9,41.8,26.7,62.9,1.1,2.8,2.5,3.7,5.4,3.6,10.6-.1,21.3-.3,31.9.1,4.3.2,5.9-1.7,7.2-5q5-12.3,10.2-24.6c7.9-18.8,15.9-37.7,23.9-56.5,2.4-5.7,5-11.3,7.5-17l1.1.3V876.8Zm47.1-242.1V877c2.3,0,4.2.1,6.2,0,33-.6,66-1,99-2.1a138.9,138.9,0,0,0,30-4.7c22.9-6.3,41.4-19.3,55.7-38.5,22.7-30.4,28.8-64.6,22.7-101.2-4.4-27-17-50.1-38.3-68a111.5,111.5,0,0,0-32.1-18.8c-14.4-5.5-29.6-6.7-44.8-7.8-12-1-24.2-1-36.3-1.1-16.4-.2-32.9-.1-49.4-.1Z"/><path class="cls-1" d="M.2,268.4c13.3,9.8,26.1,20.1,39.8,29.1a296.1,296.1,0,0,0,70.4,33.7c24.6,8.2,49.6,15.5,74.7,21.8,18.6,4.7,37.6,7.4,56.5,10.5,17.1,2.7,34.4,4.9,51.6,6.9,9.8,1.2,19.7,1.6,29.6,2.1,19.3,1.1,38.6,2.4,57.9,2.9,26.3.7,52.5,1,78.8,1.1,14.4,0,28.8-.5,43.2-1,11.9-.5,23.8-1.1,35.6-2,18.6-1.5,37.1-2.8,55.6-5.1,34.9-4.3,69.6-9.9,103.7-18.9a465.9,465.9,0,0,0,66.8-22.9,312.1,312.1,0,0,0,68.5-40.3c7.4-5.8,14.2-12.4,21.6-18.9.1,1.4.4,2.6.4,3.8,0,59.1-.1,118.2.1,177.3,0,6.6-5,9.3-8.8,12.4a416.2,416.2,0,0,1-34.8,25.7c-18.1,11.6-37.8,20.4-57.8,28.3-24.4,9.6-49.6,16.8-75.1,22.6-18.9,4.3-38.2,7.2-57.5,10.3-17.1,2.7-34.4,4.9-51.6,6.9-10,1.2-20.1,1.6-30.1,2.1-21.8,1.1-43.6,2.4-65.4,2.9-28.4.7-56.8,1.1-85.2,1-15.2,0-30.5-.9-45.6-2-18.4-1.3-36.7-3-55.1-4.9s-34.3-3.4-51.3-6.2c-20.8-3.3-41.6-7-62.1-12.1-22.3-5.6-44.4-12.3-66.2-19.7-32-10.9-62-26-89.1-46.4-4.3-3.1-8.1-6.7-12.3-10s-7-8.5-7-15.3c.4-56.9.2-113.8.2-170.8Z"/><path class="cls-1" d="M383.1,830.6V681.1c12.6,0,24.9-.2,37.3.1,13.9.3,25.3,7,35.1,15.9a59.8,59.8,0,0,1,17.6,31.4c5,22.4,5.6,44.8-3.9,66.3s-24.6,34-48,35.6C408.7,831.3,396.1,830.6,383.1,830.6Z"/></g></g></svg>