<svg id="Layer_1" data-name="Layer 1" xmlns="http://www.w3.org/2000/svg" viewBox="0 0 50 50"><defs><style>.cls-1{fill:#ddefe5;}.cls-2{fill:#46b86e;}</style></defs><circle class="cls-1" cx="25" cy="25" r="24.61"/><path class="cls-2" d="M25.45,10.54a5.54,5.54,0,0,1,.55.14,2.88,2.88,0,0,1,1.94,1.7.3.3,0,0,0,.33.22h1.59a2.49,2.49,0,0,1,.47,0,.59.59,0,0,1,.54.64v1a.29.29,0,0,0,0,.09h2.41a3.8,3.8,0,0,1,.89.11,2.85,2.85,0,0,1,2.16,2.77c0,6.52,0,13,0,19.56a2.77,2.77,0,0,1-2.73,2.68c-.57,0-1.15,0-1.72,0H16.56a2.89,2.89,0,0,1-2.51-1.27,2.13,2.13,0,0,1-.4-1.24c0-.12,0-.23,0-.34,0-6.41,0-12.82,0-19.23a3,3,0,0,1,2.53-3,4.35,4.35,0,0,1,.51,0h2.47v-1c0-.47.17-.69.64-.72s1.22,0,1.83,0a.38.38,0,0,0,.41-.25,3,3,0,0,1,2.21-1.75.94.94,0,0,0,.15-.06Zm5.42,5.19v1.43c0,.69-.26.95-.95.95H20.06c-.68,0-.92-.25-.92-.94V15.74H16.28l-.11,0A1.56,1.56,0,0,0,15,17.37V36.82a1.17,1.17,0,0,0,.62,1,2,2,0,0,0,1.08.24H33.55A1.35,1.35,0,0,0,35,36.55V17.46a2.09,2.09,0,0,0,0-.25,1.49,1.49,0,0,0-1.33-1.47C32.74,15.7,31.82,15.73,30.87,15.73ZM29.46,14H27.67a.77.77,0,0,1-.86-.65A1.93,1.93,0,0,0,25,11.83a2,2,0,0,0-1.91,1.47c-.15.54-.35.68-.91.68H20.55v2.74h8.91Z"/><path class="cls-2" d="M28.28,21.9h3.83c.49,0,.8.26.8.67a.69.69,0,0,1-.79.72h-7.7a.71.71,0,0,1-.79-.7c0-.42.3-.69.78-.69Z"/><path class="cls-2" d="M28.28,32.91h3.87a.68.68,0,0,1,.76.66.65.65,0,0,1-.52.7,1.55,1.55,0,0,1-.31,0H24.47a.78.78,0,0,1-.77-.39.69.69,0,0,1,.66-1h3.92Z"/><path class="cls-2" d="M28.25,28.78H24.33a.68.68,0,0,1-.27-1.32,1.67,1.67,0,0,1,.5-.06h6.21c.49,0,1,0,1.49,0a.63.63,0,0,1,.65.64.66.66,0,0,1-.71.72Z"/><path class="cls-2" d="M19.25,22.42,20.79,21l.59-.56a.69.69,0,0,1,1,0,.65.65,0,0,1,0,1l-2.66,2.52a.65.65,0,0,1-1,0c-.45-.46-.91-.92-1.36-1.39a.72.72,0,0,1-.13-.88.64.64,0,0,1,.73-.3,1.54,1.54,0,0,1,.42.26Z"/><path class="cls-2" d="M19.21,28l1.59-1.51c.19-.18.37-.37.57-.54a.69.69,0,0,1,1,0,.66.66,0,0,1-.06,1L19.7,29.42a.68.68,0,0,1-1.05,0L17.33,28a.74.74,0,0,1,0-1,.7.7,0,0,1,1,.08l.83.85Z"/><path class="cls-2" d="M19.24,33.44l2.08-2a.69.69,0,0,1,.92-.12.65.65,0,0,1,.13,1c-.9.87-1.82,1.74-2.74,2.6a.62.62,0,0,1-.93,0q-.7-.69-1.38-1.41a.69.69,0,1,1,1-1C18.61,32.87,18.91,33.14,19.24,33.44Z"/></svg>