<svg id="Layer_1" data-name="Layer 1" xmlns="http://www.w3.org/2000/svg" viewBox="0 0 50 50"><defs><style>.cls-1{fill:#fff0dd;}.cls-2{fill:#f99c1d;}</style></defs><circle class="cls-1" cx="25" cy="25" r="24.61"/><path class="cls-2" d="M39.5,35c-.32.44-.5.47-1,.23a16.59,16.59,0,0,0-4.23-1.36,20.25,20.25,0,0,0-4.85-.33,18.56,18.56,0,0,0-3.93.58A3.47,3.47,0,0,1,23.85,34a21.64,21.64,0,0,0-6.22-.34,18.79,18.79,0,0,0-5.89,1.5c-.15.06-.3.15-.46.21a.56.56,0,0,1-.78-.48,2.62,2.62,0,0,1,0-.28V17.12c0-.63.16-.79.81-.79h1.63v-.57a.6.6,0,0,1,.55-.67,15.11,15.11,0,0,1,5.72-.38,9.43,9.43,0,0,1,5.66,2.57,1.09,1.09,0,0,0,.11.1c.34-.28.66-.57,1-.83a9.72,9.72,0,0,1,4.5-1.79,15.48,15.48,0,0,1,6.06.33.55.55,0,0,1,.48.57c0,.22,0,.43,0,.67.6,0,1.15,0,1.71,0a.72.72,0,0,1,.76.4ZM24.42,32.48a.54.54,0,0,0,0-.11q0-6.84,0-13.68a.49.49,0,0,0-.14-.32,7.12,7.12,0,0,0-2.11-1.58,9.83,9.83,0,0,0-3.72-1,14.86,14.86,0,0,0-4.36.32V30.9C17.67,30.54,21.17,30.58,24.42,32.48Zm1.14,0c.14-.08.23-.14.34-.19a25.09,25.09,0,0,1,2.42-1,17.55,17.55,0,0,1,6.73-.48l.84.07V16.12A14.32,14.32,0,0,0,30.32,16a8.38,8.38,0,0,0-4.56,2.33.67.67,0,0,0-.2.52c0,4.44,0,8.87,0,13.31Zm11.5-15V31.41c0,.53-.26.75-.78.69a22.8,22.8,0,0,0-5-.19,12.47,12.47,0,0,0-3,.61,21,21,0,0,1,10.06,1.42V17.48Zm-25.41,0V33.9c.82-.26,1.61-.56,2.43-.77a19.29,19.29,0,0,1,2.49-.51,22,22,0,0,1,2.56-.19c.84,0,1.67,0,2.5.06l-.23-.07A17,17,0,0,0,14.59,32c-.32,0-.63.09-.95.12s-.68-.23-.68-.78q0-6.75,0-13.48v-.38Z"/></svg>