<svg xmlns="http://www.w3.org/2000/svg" viewBox="0 0 751 974.4"><defs><style>.cls-1{fill:#58585a;}</style></defs><g id="Layer_2" data-name="Layer 2"><g id="Layer_1-2" data-name="Layer 1"><path class="cls-1" d="M195.3,316.7v-6.2c0-44.5-.3-88.9.1-133.4.5-46.5,17.7-86.6,49.4-120.3S313.4,5,357.7.9c96.1-9,172.1,52.9,193.9,133.3a172.8,172.8,0,0,1,6,46.4c-.2,43.3-.1,86.6-.1,129.9V316c8.3,1.4,16.2,2.3,23.9,4.1,33.5,8,61.5,39.6,65.8,73.9a27.5,27.5,0,0,1,.2,5c0,81.2.3,162.5-.2,243.7-.1,22.2-10.7,40.5-26.1,56-13.8,14-30.8,21.9-49.9,25.3a47.1,47.1,0,0,1-7.5.3q-186.8,0-373.6-.1c-23.7,0-43.3-10.3-59.8-26.9a86.2,86.2,0,0,1-24.4-48.1,47.4,47.4,0,0,1-.5-6.5c0-81.2-.2-162.5.2-243.7,0-20.2,9-37.4,22.3-52.1,17.3-19,38.8-29.2,64.7-29.8Zm180.7.4c28.3,0,56.6-.1,84.9.1,4.8.1,6.2-1.1,6.2-6-.2-40.6-.1-81.2-.2-121.8a177.3,177.3,0,0,0-.9-17.9c-5.7-57-64.9-94.5-118.8-75.5-37.9,13.4-61.2,46.9-61.3,89.1s0,84.6-.1,126.9c-.1,4.3,1.3,5.2,5.4,5.2ZM353.8,574.9c0,6.3-.2,12.6,0,18.9s-.2,15.1,1.1,22.4c2.2,12.4,14.6,19.7,26.8,16.8S399,621.4,399,608.2c.1-22.2.1-44.3,0-66.5,0-3.8,1-6.2,4.3-8.6,17.4-12.8,22.7-34.1,13.9-53.8a44.4,44.4,0,0,0-49.5-25c-18.5,3.9-30.5,15.3-34.9,33.6s1.9,34.1,17.3,45.6c2.7,2.1,3.8,4,3.7,7.4C353.7,552.2,353.8,563.5,353.8,574.9Z"/><path class="cls-1" d="M751,970.2H712.2c-11.9,0-11.9,0-15.5-11.5s-6.7-20.5-9.8-30.8c-.9-3-2.2-4.4-5.5-4.4q-33.4.2-66.9,0c-3,0-4.4.9-5.3,3.9-3.9,13.1-8.1,26-12.4,38.9-.5,1.5-2.4,3.7-3.6,3.7-15.8.3-31.5.2-48,.2,2.4-6.7,4.5-12.8,6.7-18.8q33.9-93,67.6-185.8c1.3-3.8,3-5,7-4.9,15.2.2,30.3.2,45.5,0,3.4,0,5.2.8,6.4,4.3l71.1,200.4C750,966.8,750.4,968.2,751,970.2ZM620.7,887.3h53.7l-26.7-86C639.3,828.3,630.1,857.6,620.7,887.3Z"/><path class="cls-1" d="M440.4,898.1c-.1,2.5-.3,4.6-.3,6.8v58.4c0,6.9-.1,6.9-7.2,6.9-11.5,0-23-.1-34.4.1-3.8,0-4.9-1.2-4.9-4.9q.1-100,.1-200.2c0-1.3.3-2.6.5-4.4h5.5c22.2,0,44.3-.3,66.4.1,15.3.2,30.6,1.4,45,7.4,21.2,9,31.9,25.4,34.6,47.8,1.8,15.5.5,30.3-7.1,44-11.7,21.3-30.7,32.3-54,35.9-11.6,1.8-23.5,1.5-35.3,2.1C446.5,898.2,443.7,898.1,440.4,898.1Zm.1-35c10.4-.5,20.6-.4,30.6-1.6,14.2-1.7,22.7-10.2,25.4-24.1A45.1,45.1,0,0,0,497,827c-.2-15.1-8.6-26-23.3-28.5-9.1-1.6-18.5-1.2-27.8-1.9-4.5-.3-6,1.3-5.9,5.9.2,18.1.1,36.2.1,54.3C440.1,858.6,440.3,860.4,440.5,863.1Z"/><path class="cls-1" d="M348.8,920.8c0,13.7.2,26.5-.1,39.3a6.1,6.1,0,0,1-3.5,4.4c-10.9,3-21.7,6.4-32.8,8-19.3,2.8-38.8,2.5-57.8-3-36.5-10.5-58.5-35.3-65.9-72-5.8-28.6-4.2-57.2,9.8-83.5,17.4-32.8,45.2-51.1,82-55.4a165.1,165.1,0,0,1,63.7,4.9c3.4,1,4.8,2.3,4.7,6.1-.2,11.8,0,23.6-.1,35.4,0,1.3-.2,2.6-.2,3.5-8.8-2.9-17.2-6.5-26-8.6-17.4-4-34.8-3.9-51.2,3.8-21.3,9.8-32.3,27.4-35.5,50.1-2.3,16.5-1,32.6,6.7,47.7C253,922,270.5,932,293,933.5a97.7,97.7,0,0,0,52.5-11.2Z"/><path class="cls-1" d="M163,808.5c-8.8-2.9-17.1-6.5-25.7-8.5-17.3-4.1-34.8-4.1-51.3,3.5-22,10.2-33.1,28.4-35.9,52-1.9,16.6-.5,32.9,7.9,47.9,10.7,19.2,27.6,28.6,49.2,30.1a98.5,98.5,0,0,0,52.9-11.3L163,921v30.2c0,12.9.1,13.3-12,16.5-30.6,8.2-61.5,10.1-91.6-1.5s-49.5-35.7-56.1-68c-6-28.7-4.4-57.1,9.4-83.5,17.1-33.2,45-51.7,82-56,21.6-2.6,43.1-1.3,64.1,5,1.6.5,4,2.1,4,3.3C163.1,780.9,163,794.8,163,808.5Z"/></g></g></svg>