<svg xmlns="http://www.w3.org/2000/svg" viewBox="0 0 1022.4 879.2"><defs><style>.cls-1{fill:#58585a;}</style></defs><g id="Layer_2" data-name="Layer 2"><g id="Layer_1-2" data-name="Layer 1"><path class="cls-1" d="M0,28.2c1.1-4,1.8-8.2,3.5-11.9C9.1,4.3,19.4,0,32,0H453.1c7.2,0,7.2,0,7.2,7.4,0,54.7.2,109.3-.3,163.9a19.6,19.6,0,0,0,20,19.9c57.4-.3,114.8-.2,172.3-.2,7.2,0,7.3,0,7.3,7.4V249c-7-2.7-13-5.2-19.2-7.5A229.5,229.5,0,0,0,574,227c-18.6-1.1-37.3-2.3-55.8-1-50.5,3.6-96.3,21.1-138,49.8a19.6,19.6,0,0,1-10.6,3.1q-127.7.2-255.2,0c-12.3,0-22.1,4.4-28.7,14.9s-6.5,19.8-1,29.9,16.4,16.5,29.2,16.5H307.7l4.9.2c-2.3,3.4-4.1,6.2-6.1,9a255,255,0,0,0-32.2,61.1c-1.6,4.2-3.6,5.5-7.9,5.4H114.5c-15.7,0-26.9,7.8-32,22.1s4.4,33.4,19.4,37.6a57.3,57.3,0,0,0,14.3,1.9c45.4.2,90.9.1,136.3.1l5.8.3c-.1,1.7-.2,2.9-.3,4.2a233.8,233.8,0,0,0,.2,56.7c.5,3.3.3,6.7.9,10s-.9,4.6-4.2,4.5H115c-11.9-.1-22,3.5-28.7,13.8s-7.4,20-1.9,30.3,14.8,17,27.4,17H218.6c17.5,0,35,.1,52.5-.1,4-.1,5.9,1.3,7.3,5A284.4,284.4,0,0,0,316,685.5c1,1.3,1.9,2.7,3.6,5.1H113.8c-15.8,0-26.3,7.5-31.6,22.5s7,35.7,23.4,37.7a148.8,148.8,0,0,0,16.4.9c86.6.1,173.1,0,259.7.2a24.2,24.2,0,0,1,11.7,3.2c21.3,12.5,43.6,22.8,67.3,29.5,36.5,10.3,73.6,14.3,111.6,10.2a292.5,292.5,0,0,0,57-11.5c9-2.8,17.7-6.5,26.6-9.8l3.3-1.1c.1,2,.3,3.6.3,5.2,0,24-.2,48,.2,71.9.2,14.6-8.6,25.3-20.3,28.6a29.8,29.8,0,0,1-8.4,1.1H32.7C14.1,879.2,5,871.9.9,853.7a15.7,15.7,0,0,0-.9-2.3Z"/><path class="cls-1" d="M587.9,303.8c32.6.8,58.9,9.5,80.4,29.5,8.6,8,15.6,17.6,23.1,26.6,1.5,1.7,2.2,3.2,5.1,1.7a118.2,118.2,0,0,1,45.9-13c36.2-2.6,67,8.7,93,33.9a119.1,119.1,0,0,1,29.3,46.2c1.2,3.4,2.5,4.4,6,3.3a110.4,110.4,0,0,1,37.9-4c25.6,1.5,48.7,10.2,68.6,26.6,23.2,19.2,37.9,43.8,43,73.1,6.6,37.8-1.7,72.6-26.4,102.8a117.6,117.6,0,0,1-47.9,35.4c-14.1,5.7-29,7.7-44.1,8.4-3.3.1-6.6-.7-9.9-.7-134.5,0-269-.2-403.5.2-18.1,0-35.7-1-52.7-7.5a116.6,116.6,0,0,1-48.9-35.5,123.2,123.2,0,0,1-26.4-54.9,126.1,126.1,0,0,1,1.3-55,118.2,118.2,0,0,1,22.5-46.6c19.2-24,43.5-40,74.5-44.4a5.8,5.8,0,0,0,1.9-.4c3-1.9,8,1.8,9.6-3.1a44.8,44.8,0,0,0,1.4-10.3c1.5-26.8,11.6-50,28.9-70.3s39-33.6,65.2-39.1C574.1,304.9,582.7,304.4,587.9,303.8Z"/><path class="cls-1" d="M643.1,158.6l-5.3.4c-46.9,0-93.8-.1-140.8.1-3.9,0-5-1.2-5-5.1q.2-68.4.1-136.8c0-.6.1-1.2.2-3.2Z"/></g></g></svg>