<svg id="Layer_1" data-name="Layer 1" xmlns="http://www.w3.org/2000/svg" viewBox="0 0 50 50"><defs><style>.cls-1{fill:#ece8f3;}.cls-2{fill:#6864ad;}</style></defs><circle class="cls-1" cx="25" cy="25" r="24.39"/><path class="cls-2" d="M24.51,41.1a11.2,11.2,0,0,1-1.45-.48,4.16,4.16,0,0,1-2.24-2.75c-.06-.22-.15-.27-.35-.27H12.93a.89.89,0,0,1-.69-1.56,13.32,13.32,0,0,0,3.5-6.82A19.39,19.39,0,0,0,16,26.48c0-.9,0-1.82,0-2.73a9,9,0,0,1,6.15-8.49l.25-.09V13.89a2.62,2.62,0,0,1,5.24,0v1.29a8.91,8.91,0,0,1,3,1.6A8.67,8.67,0,0,1,34,22.85c.1,1.12.07,2.25.06,3.37a13.67,13.67,0,0,0,2.15,7.72,22.45,22.45,0,0,0,1.65,2.13.89.89,0,0,1-.34,1.5,1.58,1.58,0,0,1-.38,0h-7.5c-.24,0-.32.07-.39.29a4.28,4.28,0,0,1-3.55,3.16.43.43,0,0,0-.13.05Zm-9.75-5.26H35.34l-.27-.38a14.94,14.94,0,0,1-2.7-7.56c-.08-1.2,0-2.4-.07-3.6a12.94,12.94,0,0,0-.11-1.65,7.27,7.27,0,0,0-14.44,1.27c0,1,0,2,0,2.94a15,15,0,0,1-1.83,7.06C15.57,34.58,15.15,35.2,14.76,35.84Zm7.84,1.78a2.58,2.58,0,0,0,2.49,1.73,2.53,2.53,0,0,0,2.36-1.73Zm3.3-22.81V14a1.85,1.85,0,0,0,0-.23.91.91,0,0,0-.84-.75.85.85,0,0,0-.86.71,7.36,7.36,0,0,0,0,1.05Z"/><path class="cls-2" d="M11.94,23.43a13,13,0,0,1,3.8-8.85A.88.88,0,1,1,17,15.84a11.3,11.3,0,0,0-2.57,4,11.72,11.72,0,0,0-.72,4,.81.81,0,0,1-.47.77.76.76,0,0,1-.9-.07,1.83,1.83,0,0,1-.36-.66A1.22,1.22,0,0,1,11.94,23.43Z"/><path class="cls-2" d="M38.12,23.46v.35a.87.87,0,1,1-1.74,0,11.58,11.58,0,0,0-1.05-4.75,11.31,11.31,0,0,0-2.22-3.21.88.88,0,0,1,.14-1.45.87.87,0,0,1,1.08.19A12.89,12.89,0,0,1,37.82,21c.17.8.24,1.62.36,2.43Z"/></svg>