<svg id="Layer_1" data-name="Layer 1" xmlns="http://www.w3.org/2000/svg" viewBox="0 0 50 50"><defs><style>.cls-1{fill:#fde1e1;}.cls-2{fill:#ef3d43;}</style></defs><circle class="cls-1" cx="25" cy="25" r="24.39"/><path class="cls-2" d="M30.29,28.86a9.36,9.36,0,1,0-10.57,0A15.39,15.39,0,0,0,10.2,39.4h2.43a8.91,8.91,0,0,1,.52-1.72c1.43-3.82,5.6-6.68,10.66-7.07A11.45,11.45,0,0,1,25,30.56h0c5.85,0,10.74,3.29,12,7.72a6.14,6.14,0,0,1,.35,1.14H39.8A15.45,15.45,0,0,0,30.29,28.86Zm-5.29-1a6.72,6.72,0,0,1-6.74-6.74A6.74,6.74,0,1,1,25,27.84Z"/><path class="cls-2" d="M37.38,39.42h-.09"/><path class="cls-2" d="M12.71,39.4h-.08"/></svg>