<svg id="Layer_1" data-name="Layer 1" xmlns="http://www.w3.org/2000/svg" viewBox="0 0 50 50"><defs><style>.cls-1{fill:#fee6de;}.cls-2{fill:#f15b2f;}</style></defs><circle class="cls-1" cx="25" cy="25" r="24.39"/><path class="cls-2" d="M33.33,22V38.94A1.4,1.4,0,0,1,32,40.48a1.73,1.73,0,0,1-.92-.24c-1.15-.66-2.28-1.35-3.41-2.05a.66.66,0,0,0-.78,0c-1.24.76-2.51,1.49-3.75,2.26a1.61,1.61,0,0,1-1.86,0c-1.25-.78-2.53-1.51-3.78-2.28a.59.59,0,0,0-.69,0c-1.17.71-2.34,1.42-3.52,2.11a1.43,1.43,0,0,1-2.16-.8,2.38,2.38,0,0,1-.05-.53q0-12.24,0-24.48a3.91,3.91,0,0,1,4-4H34.89a3.9,3.9,0,0,1,4,4c0,1.7,0,3.39,0,5.09A2.39,2.39,0,0,1,36.4,22Zm-1.61-9.54H15.23a1.93,1.93,0,0,0-2.11,2.12c0,7.67,0,15.34,0,23V38l.29-.16c.79-.48,1.59-1,2.37-1.44a2.44,2.44,0,0,1,2.74,0c1.16.7,2.32,1.4,3.47,2.11a.39.39,0,0,0,.48,0c1.14-.69,2.3-1.36,3.43-2.07a2.49,2.49,0,0,1,2.82,0L31,37.85l.28.14V14.89A4.49,4.49,0,0,1,31.72,12.49ZM33.33,20h3c.42,0,.54-.13.54-.55v-5a2.1,2.1,0,0,0-.07-.56,1.91,1.91,0,0,0-2-1.41,1.67,1.67,0,0,0-1.49,1.8V20Z"/><path class="cls-2" d="M21.46,25.54H17.57a1.08,1.08,0,0,1-1-.55,1,1,0,0,1,.91-1.49c.59,0,1.18,0,1.77,0h6.16a1.06,1.06,0,0,1,1,.55,1,1,0,0,1-.69,1.46,2.12,2.12,0,0,1-.44,0Z"/><path class="cls-2" d="M21.48,18.1c1.33,0,2.67,0,4,0a1,1,0,0,1,1,1,1,1,0,0,1-1.07,1h-8a1,1,0,0,1-1-.88,1,1,0,0,1,.66-1.09,1.88,1.88,0,0,1,.53-.06Z"/><path class="cls-2" d="M21.49,29h4a1,1,0,0,1,1,.85A1,1,0,0,1,25.79,31a.9.9,0,0,1-.28,0H17.45a1,1,0,0,1-1-.89,1,1,0,0,1,.69-1.08,1.54,1.54,0,0,1,.43-.05Z"/></svg>