<svg id="Layer_1" data-name="Layer 1" xmlns="http://www.w3.org/2000/svg" viewBox="0 0 50 50"><defs><style>.cls-1{fill:#fff1dd;}.cls-2{fill:#f89a1e;}</style></defs><circle class="cls-1" cx="25" cy="25" r="24.39"/><path class="cls-2" d="M28.28,10.3a10.26,10.26,0,0,1,1.45.48,4.46,4.46,0,0,1,2.56,4c0,.78,0,1.55,0,2.33a1.15,1.15,0,1,1-2.29,0c0-.84,0-1.67-.05-2.5a2.2,2.2,0,0,0-2.31-2.05c-3.81,0-7.62,0-11.43,0a2.3,2.3,0,0,0-2.35,2.46c0,4.39,0,8.77,0,13.15v6.72a2.5,2.5,0,0,0,.46,1.54,2.29,2.29,0,0,0,1.91.93h11.4A2.31,2.31,0,0,0,30,35c0-.71,0-1.43,0-2.15a1.15,1.15,0,1,1,2.29,0c0,.82,0,1.63,0,2.44a4.59,4.59,0,0,1-3.88,4.33,5.49,5.49,0,0,1-.8.06H16.23a4.56,4.56,0,0,1-4.56-3.64,4.36,4.36,0,0,1-.1-1q0-10,0-20.07a4.57,4.57,0,0,1,3.92-4.62l.1,0Z"/><path class="cls-2" d="M37.7,23.85c-.44-.44-.88-.87-1.31-1.31a5.69,5.69,0,0,1-.54-.56,1.12,1.12,0,0,1,.09-1.53,1.1,1.1,0,0,1,1.53-.06c1,.94,1.93,1.89,2.86,2.87a2.44,2.44,0,0,1,.59,1.6,3,3,0,0,1-1,2.47c-.8.76-1.56,1.56-2.35,2.33a1.08,1.08,0,0,1-1.21.26,1.09,1.09,0,0,1-.74-1A1.18,1.18,0,0,1,36,28l1.48-1.48a2.35,2.35,0,0,1,.25-.19l0-.09H24.05a1.15,1.15,0,1,1-.16-2.29H37.66Z"/></svg>