<svg id="Layer_1" data-name="Layer 1" xmlns="http://www.w3.org/2000/svg" viewBox="0 0 50 50"><defs><style>.cls-1{fill:#dcf0fb;}.cls-2{fill:#4494d0;}</style></defs><circle class="cls-1" cx="25" cy="25" r="24.39"/><path class="cls-2" d="M24.59,41.26a21.5,21.5,0,0,1-8.39-5.77,22.67,22.67,0,0,1-5.42-10.43,21.67,21.67,0,0,1-.54-4.68c0-1.31,0-2.63,0-3.94a2.5,2.5,0,0,1,1.6-2.37,5.87,5.87,0,0,0,3.69-3.71,2.5,2.5,0,0,1,2.4-1.62H32a2.56,2.56,0,0,1,2.57,1.79,5.62,5.62,0,0,0,2.86,3.21,6.72,6.72,0,0,0,.67.28,2.57,2.57,0,0,1,1.68,2.42c0,1.28,0,2.56,0,3.84A22.62,22.62,0,0,1,35,34a22.36,22.36,0,0,1-8.82,7c-.26.11-.53.19-.8.29ZM25,10.65H18.07a.73.73,0,0,0-.84.57,7.53,7.53,0,0,1-4.55,4.56.72.72,0,0,0-.54.79c0,1.19,0,2.37,0,3.56a19.65,19.65,0,0,0,.53,4.59A20.8,20.8,0,0,0,24.52,39.2a1.07,1.07,0,0,0,1,0A20.79,20.79,0,0,0,36,28.66a19.57,19.57,0,0,0,1.79-7.4c.06-1.53,0-3.05.06-4.57,0-.58-.11-.74-.65-1a7.49,7.49,0,0,1-4.43-4.48c-.19-.5-.36-.61-.9-.61Z"/><path class="cls-2" d="M21,21.05c0-.86,0-1.72,0-2.57a4.15,4.15,0,0,1,.41-1.87,4,4,0,0,1,4.1-2.19,4,4,0,0,1,3.42,3.42,20.77,20.77,0,0,1,0,2.09v1.12a4.82,4.82,0,0,1,.7.14,2.18,2.18,0,0,1,1.64,2c.05,1,0,2.06,0,3.08s0,2,0,3a4.2,4.2,0,0,1-3.93,3.84c-1.52,0-3,0-4.57,0a4.21,4.21,0,0,1-4.15-4.25c0-1.81,0-3.62,0-5.43a2.28,2.28,0,0,1,2.09-2.35Zm4,2H21.13c-.47,0-.56.09-.56.56,0,1.75,0,3.49,0,5.24A2.34,2.34,0,0,0,23,31.23h3.93a2.34,2.34,0,0,0,2.49-2.48V23.57c0-.47-.09-.56-.55-.56Zm2.07-1.94v-2.7a2.07,2.07,0,1,0-4.14,0c0,.81,0,1.62,0,2.44a2.29,2.29,0,0,0,0,.25Z"/><path class="cls-2" d="M26,27.1c0,.28,0,.57,0,.85A1,1,0,0,1,25,29a1,1,0,0,1-1-1c0-.55,0-1.1,0-1.65a1,1,0,1,1,1.93,0C26,26.57,26,26.83,26,27.1Z"/></svg>