<svg id="Layer_1" data-name="Layer 1" xmlns="http://www.w3.org/2000/svg" viewBox="0 0 50 50"><defs><style>.cls-1{fill:#ddefe5;}.cls-2{fill:#3eb662;}</style></defs><circle class="cls-1" cx="25" cy="25" r="24.39"/><path class="cls-2" d="M39.93,21.27V24a1.09,1.09,0,0,1-1.15.65c-.81,0-1.63,0-2.44,0H36A11.26,11.26,0,0,1,30.4,36.36a2.66,2.66,0,0,1,.09.46c0,.87.05,1.74.09,2.61a1,1,0,0,1-.66,1.1H20.14a1,1,0,0,1-.67-1.1,15.1,15.1,0,0,1,.17-3A11.46,11.46,0,0,1,14,24.64h-2.9a.88.88,0,0,1-.95-.94V21.84A5.32,5.32,0,0,1,11.72,18,16.36,16.36,0,0,1,13,17a3.7,3.7,0,0,1,.06-5.13,3.66,3.66,0,0,1,6.2,1.79,3.58,3.58,0,0,1-1,3.39c.26,0,.37.38.67.18a10.73,10.73,0,0,1,5.37-1.75A11,11,0,0,1,30.86,17c.45.27.45.28.86-.05a3.74,3.74,0,0,1,.22-5.34,3.69,3.69,0,0,1,4.8-.06A3.73,3.73,0,0,1,38,14.1,3.54,3.54,0,0,1,37,17l.19.12a5.46,5.46,0,0,1,2.5,3.23C39.79,20.65,39.85,21,39.93,21.27ZM29.67,34.74l.25-.14a9.5,9.5,0,0,0,4.37-9.73c0-.22-.15-.23-.32-.23H29.81a.9.9,0,0,1-1-1c0-.6,0-1.19,0-1.78A7.5,7.5,0,0,1,29,20.63a5.31,5.31,0,0,1,.95-2.06c-2.13-1.83-8-1.82-9.79,0a5.39,5.39,0,0,1,1.07,2.9c0,.72,0,1.44,0,2.15a.91.91,0,0,1-1,1H16.07c-.19,0-.29,0-.3.24,0,.61-.16,1.22-.15,1.83a9.41,9.41,0,0,0,3,6.7,8,8,0,0,0,1.81,1.33,5.77,5.77,0,0,1,2-1.84,3.73,3.73,0,0,1,.1-5.25,3.66,3.66,0,0,1,4.83-.23,3.77,3.77,0,0,1,1.36,2.46,3.54,3.54,0,0,1-1,3A5.78,5.78,0,0,1,29.67,34.74ZM19.46,22.88c.1-1.65-.15-3.15-1.63-4.11a3.71,3.71,0,0,0-4.29,0c-1.49,1-1.75,2.47-1.65,4.12Zm11.16,0h7.56c0-.33,0-.64,0-.95a3.71,3.71,0,0,0-3.24-3.76A3.87,3.87,0,0,0,30.62,22.87ZM28.8,38.77c.12-1.69-.16-3.22-1.71-4.17a3.72,3.72,0,0,0-4.25.09c-1.45,1-1.71,2.46-1.58,4.08ZM17.6,14.4a1.93,1.93,0,0,0-1.92-1.92,2,2,0,0,0-1.93,1.89,1.9,1.9,0,0,0,1.88,2A1.87,1.87,0,0,0,17.6,14.4Zm14.86,0a1.87,1.87,0,0,0,1.9,2,1.9,1.9,0,0,0,2-1.92,2,2,0,0,0-1.93-1.92A1.93,1.93,0,0,0,32.46,14.37ZM25,32.22A1.89,1.89,0,0,0,27,30.3,1.91,1.91,0,0,0,25,28.38a1.93,1.93,0,0,0-1.9,1.94A1.91,1.91,0,0,0,25,32.22Z"/></svg>