<?xml version="1.0" encoding="UTF-8"?>
<svg id="Layer_2" data-name="Layer 2" xmlns="http://www.w3.org/2000/svg" xmlns:xlink="http://www.w3.org/1999/xlink" viewBox="0 0 50 50">
  <defs>
    <style>
      .cls-1 {
        clip-path: url(#clippath);
      }

      .cls-2 {
        fill: none;
      }
    </style>
    <clipPath id="clippath">
      <rect class="cls-2" width="50" height="50"/>
    </clipPath>
  </defs>
  <g id="aws">
    <g class="cls-1">
      <g>
        <path d="M21.5,22.69c.75-3.18,1.49-6.32,2.23-9.46,.03-.14,.07-.28,.11-.42,.09-.28,.29-.43,.58-.44,.54-.03,1.07-.02,1.61,0,.28,.01,.46,.17,.54,.43,.12,.35,.19,.72,.27,1.09,.7,2.95,1.39,5.9,2.09,8.85,.08-.03,.06-.11,.08-.16,.81-3.14,1.62-6.28,2.44-9.42,.03-.13,.09-.26,.13-.39,.1-.27,.31-.4,.58-.41,.52-.01,1.04-.01,1.56,0,.22,0,.32,.12,.32,.34,0,.17-.04,.33-.09,.49-1.17,3.75-2.34,7.5-3.52,11.26-.04,.14-.09,.27-.14,.41-.11,.26-.31,.4-.59,.41-.54,.01-1.08,0-1.63,0-.31,0-.5-.19-.58-.48-.1-.37-.19-.74-.28-1.1-.67-2.79-1.34-5.58-2.01-8.37,0-.03-.02-.05-.04-.11-.15,.63-.29,1.22-.44,1.81-.6,2.5-1.2,5-1.8,7.5-.15,.64-.31,.75-.97,.75-.38,0-.76,0-1.14,0-.48,0-.66-.12-.81-.59-.25-.78-.49-1.57-.73-2.36-.92-3.03-1.84-6.06-2.76-9.09-.04-.15-.08-.3-.1-.45-.04-.26,.09-.41,.35-.42,.52,0,1.04,0,1.56,0,.32,0,.52,.15,.63,.44,.18,.49,.28,1.01,.41,1.51,.7,2.73,1.39,5.46,2.08,8.19,.01,.04,.03,.09,.05,.18Z"/>
        <path d="M24.79,38.15c-4.55-.05-8.37-.77-12.06-2.2-3.64-1.41-6.9-3.43-9.8-6.03-.01-.01-.03-.02-.04-.04-.19-.19-.24-.4-.12-.57,.12-.16,.35-.2,.58-.08,.27,.15,.54,.3,.81,.45,3.43,1.88,7.06,3.25,10.87,4.15,1.78,.42,3.59,.72,5.41,.92,2.02,.22,4.04,.3,6.06,.22,3.88-.14,7.67-.82,11.37-1.98,1.26-.39,2.49-.85,3.71-1.36,.18-.08,.37-.12,.57-.08,.49,.11,.66,.63,.34,1-.18,.21-.43,.35-.65,.51-2.19,1.52-4.58,2.61-7.11,3.43-2,.65-4.05,1.11-6.14,1.38-1.45,.19-2.91,.28-3.79,.27Z"/>
        <path d="M12.79,23.6c-.34,.39-.69,.74-1.1,1.02-1.55,1.05-3.23,1.3-4.98,.65-1.24-.46-1.92-1.44-2.13-2.74-.14-.85-.08-1.69,.29-2.48,.54-1.14,1.47-1.81,2.66-2.17,.94-.28,1.91-.29,2.88-.2,.71,.07,1.4,.2,2.09,.35,.05,.01,.14,.07,.13-.05,0-.73,.03-1.46-.12-2.19-.21-.98-.82-1.52-1.79-1.69-1.14-.21-2.25-.08-3.34,.26-.46,.14-.91,.33-1.36,.48-.49,.17-.64,.06-.64-.47,0-.2,.01-.4,0-.6-.03-.4,.16-.66,.51-.83,.43-.2,.86-.37,1.32-.51,1.41-.43,2.85-.53,4.31-.29,.8,.13,1.54,.39,2.16,.93,.74,.64,1.08,1.48,1.25,2.42,.08,.47,.11,.94,.11,1.41,0,1.42,0,2.85,0,4.27,0,.93,.16,1.81,.63,2.63,.22,.38,.15,.6-.22,.84-.28,.19-.55,.37-.83,.55-.35,.23-.62,.19-.9-.13-.31-.34-.55-.74-.75-1.15-.05-.1-.1-.2-.16-.32Zm-.13-3.38c0-.13,0-.25,0-.38,0-.1-.03-.15-.13-.17-.51-.12-1.03-.2-1.55-.25-.71-.07-1.43-.1-2.13,.05-.78,.17-1.4,.56-1.67,1.36-.14,.42-.14,.85-.08,1.28,.11,.81,.66,1.41,1.46,1.54,.93,.15,1.82,0,2.64-.47,.7-.4,1.21-.97,1.37-1.79,.07-.39,.11-.78,.11-1.17Z"/>
        <path d="M40.06,12c.98,0,1.92,.16,2.85,.48,.16,.05,.31,.12,.46,.2,.42,.21,.65,.53,.61,1.02-.02,.22,.02,.45-.02,.67-.04,.25-.19,.35-.44,.3-.22-.05-.42-.16-.63-.24-1.24-.49-2.51-.61-3.82-.36-.18,.03-.35,.1-.52,.17-1.12,.47-1.15,2-.26,2.59,.52,.34,1.09,.54,1.67,.73,.83,.28,1.69,.49,2.5,.83,.82,.35,1.51,.86,1.91,1.69,.71,1.46,.28,3.31-1.02,4.39-.72,.6-1.57,.92-2.47,1.07-1.66,.29-3.28,.05-4.85-.54-.19-.07-.36-.17-.53-.28-.26-.16-.38-.4-.39-.69,0-.26,0-.53,0-.79,0-.36,.2-.51,.55-.39,.36,.12,.7,.28,1.06,.4,1.18,.39,2.38,.54,3.61,.37,.44-.06,.86-.19,1.24-.44,.92-.59,1.03-2.1-.11-2.7-.43-.23-.89-.38-1.35-.53-.84-.27-1.71-.48-2.52-.83-1.09-.47-1.87-1.23-2.21-2.39-.4-1.35,.08-2.78,1.2-3.66,.88-.7,1.9-1.01,3.01-1.07,.16,0,.32,0,.48,0Z"/>
        <path d="M43.43,28.29c.76,.02,1.5,.07,2.22,.27,.69,.19,.85,.38,.84,1.09,0,1.26-.33,2.46-.82,3.61-.46,1.08-1.07,2.06-1.96,2.85-.11,.1-.22,.19-.36,.24-.11,.03-.22,.04-.31-.04-.08-.08-.09-.19-.06-.29,.12-.32,.25-.64,.37-.97,.38-.99,.75-1.98,.97-3.02,.08-.4,.16-.8,.09-1.22-.04-.28-.18-.46-.44-.57-.4-.17-.82-.21-1.25-.23-1.03-.05-2.06,.04-3.09,.15-.33,.04-.65,.08-.98,.11-.14,.02-.29,0-.36-.14-.07-.14,0-.27,.1-.38,.2-.21,.46-.35,.71-.48,.9-.49,1.87-.75,2.89-.89,.47-.06,.95-.08,1.42-.1Z"/>
      </g>
    </g>
  </g>
</svg>