<?xml version="1.0" encoding="UTF-8"?>
<svg id="Layer_2" data-name="Layer 2" xmlns="http://www.w3.org/2000/svg" xmlns:xlink="http://www.w3.org/1999/xlink" viewBox="0 0 50 50">
  <defs>
    <style>
      .cls-1 {
        fill: #5072aa;
      }

      .cls-2 {
        clip-path: url(#clippath);
      }

      .cls-3 {
        fill: none;
      }

      .cls-4 {
        fill: #cac9c2;
      }

      .cls-5 {
        fill: #7e97c0;
      }
    </style>
    <clipPath id="clippath">
      <rect class="cls-3" width="50" height="50"/>
    </clipPath>
  </defs>
  <g id="gcp">
    <g class="cls-2">
      <g>
        <path class="cls-5" d="M35.15,3.95s0,.02,0,.03c-.05,0-.1,0-.14,0-6.88,0-13.76,0-20.64,0-.12,0-.25,0-.37,0,0-.01,0-.02,0-.03h21.14Z"/>
        <path class="cls-4" d="M48.46,24.8s.02,0,.04,0v.7s-.02,0-.04,0c0-.23,0-.47,0-.7Z"/>
        <path d="M48.46,24.8c0,.23,0,.47,0,.7-.02,.49-.17,.93-.41,1.35-1.49,2.58-2.98,5.16-4.48,7.75-1.91,3.31-3.82,6.61-5.73,9.92-.59,1.03-1.5,1.58-2.66,1.78-.09,.01-.18,.01-.27,.01-2.73,0-5.46,0-8.19,0-.04,0-.08,0-.12,0,.05-.07,.13-.1,.19-.15,.25-.18,.49-.37,.69-.62,.16-.21,.29-.43,.42-.66,.32-.58,.65-1.15,.98-1.73,.27-.47,.53-.95,.8-1.42,.33-.58,.65-1.15,.98-1.73,.27-.47,.54-.93,.8-1.4,.16-.29,.34-.57,.48-.87,1.03-1.81,2.05-3.63,3.08-5.44,1.34-2.37,2.69-4.74,4.03-7.11,.06-.1,.06-.18,0-.28-.61-1.06-1.21-2.12-1.81-3.19-.84-1.49-1.69-2.98-2.53-4.46-.21-.37-.43-.72-.61-1.1,.09,0,.16-.03,.24-.06,.7-.24,1.4-.49,2.1-.73,.64-.22,1.27-.44,1.91-.66,.81-.28,1.63-.56,2.44-.84,.42-.15,.84-.29,1.27-.44,.06-.02,.12-.04,.14-.1,.35,.6,.7,1.19,1.04,1.79,1.6,2.77,3.2,5.54,4.8,8.31,.25,.43,.4,.89,.42,1.39Zm-3.07,.31c0-.7-.56-1.26-1.26-1.26-.69,0-1.27,.57-1.27,1.26,0,.69,.58,1.27,1.27,1.27,.7,0,1.26-.56,1.26-1.26Zm-11.09,18.1c.7,0,1.26-.57,1.26-1.26,0-.69-.58-1.27-1.27-1.26-.69,0-1.26,.58-1.26,1.27,0,.7,.57,1.26,1.27,1.25Z"/>
        <path d="M25.86,46.31c-.06,0-.12,0-.19,0-3.79,0-7.57,0-11.36,0-1.19,0-2.14-.55-2.83-1.51-.27-.37-.46-.78-.69-1.18-1.74-3.02-3.49-6.04-5.23-9.06-1.5-2.59-2.99-5.18-4.49-7.77-.23-.4-.34-.82-.39-1.28-.05-.43-.01-.85,.08-1.27,.06-.28,.17-.55,.32-.8,1.37-2.37,2.74-4.75,4.11-7.12,.04-.07,.07-.15,.14-.21,0,.1,0,.19,0,.29,.02,.6,.15,1.17,.46,1.69,1.22,2.08,2.44,4.16,3.66,6.24,.12,.21,.23,.43,.37,.62,.02,.05,.04,.1,.07,.15,.6,1.02,1.2,2.05,1.8,3.07,.61,1.04,1.21,2.07,1.82,3.11,.58,.99,1.16,1.98,1.73,2.97,.64,1.1,1.29,2.19,1.92,3.29,.08,.15,.18,.19,.34,.19,3.21,0,6.42,0,9.63,0,.09,0,.18,0,.27,0,.01,.17-.03,.33-.06,.49-.09,.45-.18,.9-.26,1.35-.13,.71-.26,1.43-.39,2.14-.12,.63-.24,1.25-.36,1.88-.11,.57-.22,1.14-.32,1.72-.06,.33-.14,.66-.18,.99ZM4.91,23.85c-.7,0-1.27,.56-1.27,1.26,0,.7,.56,1.27,1.26,1.27,.69,0,1.27-.57,1.27-1.26,0-.7-.56-1.27-1.26-1.27Zm9.85,19.36c.7,0,1.27-.57,1.26-1.26,0-.69-.59-1.27-1.27-1.26-.79,.01-1.27,.67-1.26,1.27,.02,.7,.56,1.26,1.27,1.25Z"/>
        <path d="M14,3.98c.12,0,.25,0,.37,0,6.88,0,13.76,0,20.64,0,.05,0,.1,0,.14,0,.52,.03,.99,.23,1.43,.49,.53,.31,.94,.73,1.25,1.27,1.3,2.27,2.61,4.53,3.92,6.8,.04,.08,.11,.14,.11,.24-.08,.01-.13-.04-.19-.07-.51-.25-1.04-.38-1.61-.38-2.61,0-5.23,0-7.84,0-.1,0-.19,0-.29,.01-.07,0-.14,0-.21,0-4.78,0-9.56,0-14.34,0-.17,0-.27,.05-.36,.2-.6,1.05-1.21,2.1-1.82,3.15-.94,1.63-1.88,3.26-2.83,4.89-.11,.2-.21,.4-.36,.58-.04,0-.08-.02-.11-.05-.2-.18-.41-.35-.61-.53-.32-.29-.65-.57-.98-.86-.44-.39-.89-.78-1.33-1.17-.41-.35-.8-.72-1.2-1.07-.12-.11-.25-.22-.37-.33-.27-.24-.55-.46-.81-.7-.28-.26-.59-.49-.86-.77-.04-.04-.08-.06-.13-.06,.33-.58,.66-1.16,1-1.74,1.58-2.74,3.15-5.48,4.75-8.21,.58-1,1.49-1.54,2.63-1.7Zm.75,5.36c.7,0,1.27-.55,1.28-1.25,0-.68-.57-1.27-1.26-1.27-.69,0-1.26,.56-1.27,1.26,0,.71,.55,1.27,1.25,1.27Zm19.54-.09c.65,0,1.18-.52,1.18-1.17,0-.64-.53-1.18-1.17-1.18-.64,0-1.18,.54-1.17,1.18,0,.63,.53,1.16,1.16,1.16Z"/>
        <path d="M25.86,46.31c.03-.34,.12-.66,.18-.99,.1-.57,.21-1.14,.32-1.72,.12-.63,.25-1.25,.36-1.88,.13-.71,.26-1.43,.39-2.14,.08-.45,.18-.9,.26-1.35,.03-.16,.07-.32,.06-.49,.09,0,.18,0,.27,0,1.41,0,2.83,0,4.24,0-.14,.3-.32,.58-.48,.87-.26,.47-.53,.94-.8,1.4-.33,.57-.66,1.15-.98,1.73-.27,.47-.53,.95-.8,1.42-.33,.58-.66,1.15-.98,1.73-.13,.23-.25,.46-.42,.66-.2,.25-.44,.44-.69,.62-.07,.05-.15,.08-.19,.15-.25,.01-.5,.01-.75,0Z"/>
        <path d="M5.62,15.63s.09,.02,.13,.06c.27,.28,.58,.51,.86,.77,.26,.24,.54,.46,.81,.7,.12,.11,.25,.22,.37,.33,.41,.35,.8,.72,1.2,1.07,.45,.39,.89,.78,1.33,1.17,.33,.29,.66,.57,.98,.86,.2,.18,.41,.35,.61,.53,.03,.03,.07,.04,.11,.05-.03,.06-.05,.12-.08,.17-.23,.39-.46,.79-.68,1.18-.47,.82-.94,1.64-1.42,2.46-.15-.19-.25-.41-.37-.62-1.22-2.08-2.44-4.17-3.66-6.24-.31-.53-.44-1.09-.46-1.69,0-.1,0-.19,0-.29,.07-.17,.17-.33,.28-.49Z"/>
        <path d="M31.94,12.34c.1,0,.19-.01,.29-.01,2.61,0,5.23,0,7.84,0,.57,0,1.1,.13,1.61,.38,.06,.03,.11,.08,.19,.07,0,0,0,0,0,0,0,.03,.02,.04,.05,.04,.12,.15,.21,.32,.29,.49-.03,.07-.08,.08-.14,.1-.42,.14-.84,.29-1.27,.44-.81,.28-1.63,.56-2.44,.84-.64,.22-1.27,.44-1.91,.66-.7,.24-1.4,.49-2.1,.73-.08,.03-.15,.06-.24,.06-.04-.03-.06-.08-.08-.12-.34-.6-.69-1.21-1.03-1.81-.35-.62-.7-1.25-1.05-1.87Z"/>
        <path class="cls-1" d="M41.91,12.82s-.05-.01-.05-.04c.03,0,.04,.02,.05,.04Z"/>
        <path d="M24.54,31.64c-3.53,.05-6.57-2.95-6.52-6.57,.02-1.81,.67-3.36,1.94-4.62,1.27-1.26,2.83-1.9,4.62-1.89,1.84,0,3.43,.69,4.71,2.02,1.22,1.27,1.84,2.81,1.83,4.56-.02,3.63-3.01,6.55-6.58,6.5Z"/>
      </g>
    </g>
  </g>
</svg>