<svg xmlns="http://www.w3.org/2000/svg" width="350" height="308" viewBox="0 0 350 308"><g transform="translate(-164 -1442)" opacity="0.8"><rect width="250" height="8" rx="4" transform="translate(164 1442)" fill="#ebebec"/><rect width="180" height="8" rx="4" transform="translate(164 1460)" fill="#ebebec"/><rect width="8" height="8" rx="4" transform="translate(349 1460)" fill="#ebebec"/><rect width="152" height="8" rx="4" transform="translate(362 1460)" fill="#ebebec"/><rect width="350" height="8" rx="4" transform="translate(164 1478)" fill="#ebebec"/><rect width="130" height="8" rx="4" transform="translate(164 1496)" fill="#ebebec"/><rect width="8" height="8" rx="4" transform="translate(299 1496)" fill="#ebebec"/><rect width="202" height="8" rx="4" transform="translate(312 1496)" fill="#ebebec"/><rect width="300" height="8" rx="4" transform="translate(164 1524)" fill="#ebebec"/><rect width="180" height="8" rx="4" transform="translate(164 1542)" fill="#ebebec"/><rect width="8" height="8" rx="4" transform="translate(349 1542)" fill="#ebebec"/><rect width="152" height="8" rx="4" transform="translate(362 1542)" fill="#ebebec"/><rect width="350" height="8" rx="4" transform="translate(164 1560)" fill="#ebebec"/><rect width="130" height="8" rx="4" transform="translate(164 1578)" fill="#ebebec"/><rect width="8" height="8" rx="4" transform="translate(299 1578)" fill="#ebebec"/><rect width="202" height="8" rx="4" transform="translate(312 1578)" fill="#ebebec"/><rect width="350" height="8" rx="4" transform="translate(164 1606)" fill="#ebebec"/><rect width="180" height="8" rx="4" transform="translate(164 1624)" fill="#ebebec"/><rect width="8" height="8" rx="4" transform="translate(349 1624)" fill="#ebebec"/><rect width="152" height="8" rx="4" transform="translate(362 1624)" fill="#ebebec"/><rect width="350" height="8" rx="4" transform="translate(164 1642)" fill="#ebebec"/><rect width="130" height="8" rx="4" transform="translate(164 1660)" fill="#ebebec"/><rect width="8" height="8" rx="4" transform="translate(299 1660)" fill="#ebebec"/><rect width="202" height="8" rx="4" transform="translate(312 1660)" fill="#ebebec"/><rect width="200" height="8" rx="4" transform="translate(164 1688)" fill="#ebebec"/><rect width="180" height="8" rx="4" transform="translate(164 1706)" fill="#ebebec"/><rect width="8" height="8" rx="4" transform="translate(349 1706)" fill="#ebebec"/><rect width="152" height="8" rx="4" transform="translate(362 1706)" fill="#ebebec"/><rect width="350" height="8" rx="4" transform="translate(164 1724)" fill="#ebebec"/><rect width="130" height="8" rx="4" transform="translate(164 1742)" fill="#ebebec"/><rect width="8" height="8" rx="4" transform="translate(299 1742)" fill="#ebebec"/><rect width="202" height="8" rx="4" transform="translate(312 1742)" fill="#ebebec"/></g></svg>