<svg xmlns="http://www.w3.org/2000/svg" viewBox="0 0 26.77 26.78"><defs><style>.cls-1{fill:#d32428;}.cls-2{fill:#cb202d;}.cls-3{fill:#b9202e;}.cls-4{fill:#fefcfd;}.cls-5{fill:#fcf8f8;}.cls-6{fill:#fcf7f7;}.cls-7{fill:#fdf9f9;}.cls-8{fill:#bb2734;}.cls-9{fill:#ba2230;}.cls-10{fill:#bb2432;}.cls-11{fill:#ba2431;}.cls-12{fill:#bb2633;}.cls-13{fill:#fdfcfc;}</style></defs><title>Layer 1</title><g id="Layer_2" data-name="Layer 2"><g id="Layer_1-2" data-name="Layer 1"><path class="cls-1" d="M12.34,0h2c0,.07.08.05.13.05a12,12,0,0,1,1.78.27,13.27,13.27,0,0,1,6.55,3.6l-.23.21L19.06,7.68c-.09.09-.16.19-.29.21l-1.2-1.15a1.14,1.14,0,0,0-.77,0c-.14,0,0,.33-.06.5a.09.09,0,0,1,0,0c-.24-.14-.36-.43-.63-.53s-.45,0-.67,0-.18,0-.18.17c0,.29,0,.59,0,.88-.13,0-.2-.16-.29-.25s-.2-.27-.39-.27a1.29,1.29,0,0,0-.65-.63l-.12,0h0a.22.22,0,0,0-.08-.18L12.34,5a5,5,0,0,0-.95,0c-.11,0-.11.09-.13.16-.08.24-.15.47-.22.71a.52.52,0,0,1-.27-.19,7.11,7.11,0,0,0-.63-.6A.23.23,0,0,0,9.91,5H9.28c-.21,0-.2.06-.13.22l1,2.4a1,1,0,0,1,.1.45v2.82c0,.09,0,.19,0,.27l.84.87H9.28a2.14,2.14,0,0,0-2.2,2.23c0,1.38,0,2.77,0,4.15a2.77,2.77,0,0,0,.2,1.14.51.51,0,0,0-.28.19L5.68,21.06,3.92,22.84A13.07,13.07,0,0,1,.33,10.5,13.28,13.28,0,0,1,11.45.14,3.84,3.84,0,0,0,12.34,0Z"/><path class="cls-2" d="M26.77,14.48a7.07,7.07,0,0,0-.16,1s0,.1,0,.15-.22-.14-.31-.23L19,8.13c-.08-.08-.14-.16-.21-.24.13,0,.2-.12.29-.21l3.55-3.55.23-.21a1.85,1.85,0,0,1,.37.37,13.27,13.27,0,0,1,3.41,7.06,5.51,5.51,0,0,0,.15,1Z"/><path class="cls-3" d="M18.77,7.89c.07.08.13.16.21.24l7.28,7.28c.09.09.16.2.31.23a10.87,10.87,0,0,1-.87,3,13.32,13.32,0,0,1-9.09,7.74,9.66,9.66,0,0,1-2.33.35,3.08,3.08,0,0,0-.24-.27L8.26,20.67c-.08-.08-.19-.15-.21-.29a3.32,3.32,0,0,0,1.67.33h8.54a2.06,2.06,0,0,0,1.92-2.11q0-2.22,0-4.44a2,2,0,0,0-1.84-2.08,11.92,11.92,0,0,0-1.69,0l-5.51,0-.84-.87H11c.19,0,.23-.06.23-.23,0-1,0-1.92,0-2.87a1,1,0,0,1,.08-.43c.35-.87.69-1.73,1-2.59l1.37,1.34a.22.22,0,0,1,.08.18h-.1c-.86-.06-1.25.23-1.36,1.08a11.19,11.19,0,0,0,0,2.65.94.94,0,0,0,.48.74,1.21,1.21,0,0,0,1.81-1,12.36,12.36,0,0,0,0-1.36,4.7,4.7,0,0,0-.12-1.45c.19,0,.26.17.39.27s.16.21.29.25c0,.82,0,1.63,0,2.45a1.2,1.2,0,0,0,.12.56.62.62,0,0,0,1,.18l.19-.22c0,.29.09.31.27.3a2.46,2.46,0,0,1,.47,0c.25,0,.29-.07.29-.3,0-1.32,0-2.65,0-4Z"/><path class="cls-4" d="M11.14,12l5.51,0a11.92,11.92,0,0,1,1.69,0,2,2,0,0,1,1.84,2.08q0,2.22,0,4.44a2.06,2.06,0,0,1-1.92,2.11H9.72a3.32,3.32,0,0,1-1.67-.33,2.66,2.66,0,0,1-.76-.84,2.77,2.77,0,0,1-.2-1.14c0-1.38,0-2.77,0-4.15A2.14,2.14,0,0,1,9.28,12Zm3.4,3.17v-.9c0-.74,0-.74-.74-.7-.13,0-.16.05-.16.17V19c0,.06,0,.16,0,.16a3.21,3.21,0,0,0,.62,0c.16,0,.07-.21.16-.3s.19.14.29.2c.44.28.82.23,1-.14a1.11,1.11,0,0,0,.14-.34,15.72,15.72,0,0,0,0-3,.68.68,0,0,0-.79-.66A1.76,1.76,0,0,0,14.54,15.18Zm-2.2,3.55c.05.46.05.44.46.46.23,0,.3,0,.3-.29,0-1.07,0-2.14,0-3.21,0-.66,0-.65-.64-.66-.21,0-.28,0-.27.27,0,.94,0,1.88,0,2.82,0,.21-.1.37-.31.38s-.23-.19-.24-.36V15.71c0-.7,0-.7-.69-.68h-.06c-.12,0-.17,0-.16.16,0,1.16,0,2.32,0,3.48a.54.54,0,0,0,.69.54A1.39,1.39,0,0,0,12.34,18.73Zm5.74-1.53h.62c.13,0,.17,0,.17-.16a14.85,14.85,0,0,0-.06-1.49.77.77,0,0,0-.44-.63,1.19,1.19,0,0,0-1.74.81,12.52,12.52,0,0,0,0,2.37,1.15,1.15,0,0,0,.12.4,1.12,1.12,0,0,0,1.38.68,1.18,1.18,0,0,0,.78-1.31c0-.05,0-.13-.06-.13a1.81,1.81,0,0,0-.57,0c-.13,0,0,.21-.06.33a1.2,1.2,0,0,1,0,.2c-.06.26-.25.3-.48.29a.35.35,0,0,1-.37-.36c0-.29,0-.58,0-.86,0-.12,0-.15.15-.15S17.87,17.2,18.08,17.2ZM8.9,16.72c0,.6,0,1.2,0,1.8,0,.22-.1.51,0,.63s.42,0,.63,0,.25-.05.25-.24c0-1.36,0-2.72,0-4.08,0-.56,0-.56.57-.56s.57,0,.53-.56v0c0-.1,0-.14-.14-.14H8.14c-.07,0-.12,0-.14.1-.1.49,0,.6.47.61h.19c.19,0,.25.05.25.25C8.9,15.26,8.9,16,8.9,16.72Z"/><path class="cls-2" d="M7.29,19.54a2.66,2.66,0,0,0,.76.84c0,.14.13.21.21.29L14,26.46a3.08,3.08,0,0,1,.24.27,9.54,9.54,0,0,1-1.69,0,13.29,13.29,0,0,1-4.17-.93A13.47,13.47,0,0,1,4,22.9l0-.06,1.76-1.78L7,19.73A.51.51,0,0,1,7.29,19.54Z"/><path class="cls-5" d="M12.34,5c-.34.86-.68,1.72-1,2.59a1,1,0,0,0-.08.43c0,1,0,1.91,0,2.87,0,.17,0,.25-.23.23h-.7c-.08-.08,0-.18,0-.27V8.05a1,1,0,0,0-.1-.45l-1-2.4C9.08,5,9.07,5,9.28,5h.63a.23.23,0,0,1,.23.09l.54,2a.38.38,0,0,0,.07-.11c.1-.36.2-.72.29-1.08s.14-.47.22-.71c0-.07,0-.17.13-.16A5,5,0,0,1,12.34,5Z"/><path class="cls-6" d="M17.57,6.74c0,1.32,0,2.65,0,4,0,.23,0,.34-.29.3a2.46,2.46,0,0,0-.47,0c-.18,0-.31,0-.27-.3l-.19.22a.62.62,0,0,1-1-.18,1.2,1.2,0,0,1-.12-.56c0-.82,0-1.63,0-2.45,0-.29,0-.59,0-.88,0-.13,0-.19.18-.17s.46-.07.67,0c0,1.1,0,2.19,0,3.29a.3.3,0,0,0,.33.33.29.29,0,0,0,.32-.32c0-.93,0-1.85,0-2.77a.09.09,0,0,0,0,0c0-.17-.08-.45.06-.5A1.14,1.14,0,0,1,17.57,6.74Z"/><path class="cls-7" d="M14.56,7.22a4.7,4.7,0,0,1,.12,1.45,12.36,12.36,0,0,1,0,1.36,1.21,1.21,0,0,1-1.81,1,.94.94,0,0,1-.48-.74,11.19,11.19,0,0,1,0-2.65c.11-.85.5-1.14,1.36-1.08h.1a.13.13,0,0,0,.12,0A1.29,1.29,0,0,1,14.56,7.22ZM13.08,8.81h0V9.9c0,.32.16.51.4.51s.4-.18.41-.5V7.69c0-.28-.19-.45-.41-.44a.4.4,0,0,0-.39.44C13.07,8.06,13.08,8.43,13.08,8.81Z"/><path class="cls-3" d="M16.73,7.27c0,.92,0,1.84,0,2.77a.29.29,0,0,1-.32.32.3.3,0,0,1-.33-.33c0-1.1,0-2.19,0-3.29C16.37,6.84,16.49,7.13,16.73,7.27Z"/><path class="cls-8" d="M11,5.86c-.09.36-.19.72-.29,1.08a.38.38,0,0,1-.07.11l-.54-2a7.11,7.11,0,0,1,.63.6A.52.52,0,0,0,11,5.86Z"/><path class="cls-3" d="M13.91,6.59a.13.13,0,0,1-.12,0Z"/><path class="cls-9" d="M14.54,15.18a1.76,1.76,0,0,1,.64-.28.68.68,0,0,1,.79.66,15.72,15.72,0,0,1,0,3,1.11,1.11,0,0,1-.14.34c-.22.37-.6.42-1,.14-.1-.06-.17-.16-.29-.2s0,.28-.16.3a3.21,3.21,0,0,1-.62,0c-.07,0,0-.1,0-.16V13.75c0-.12,0-.16.16-.17.75,0,.75,0,.74.7ZM15.33,17V15.82c0-.26-.14-.4-.38-.4a.37.37,0,0,0-.41.4c0,.75,0,1.51,0,2.27a.37.37,0,0,0,.39.41.38.38,0,0,0,.4-.41Z"/><path class="cls-10" d="M12.34,18.73a1.39,1.39,0,0,1-.88.48.54.54,0,0,1-.69-.54c-.08-1.16,0-2.32,0-3.48,0-.13,0-.17.16-.16H11c.69,0,.69,0,.69.68v2.43c0,.17,0,.37.24.36s.31-.17.31-.38c0-.94,0-1.88,0-2.82,0-.23.06-.27.27-.27.64,0,.64,0,.64.66,0,1.07,0,2.14,0,3.21,0,.25-.07.3-.3.29C12.39,19.17,12.39,19.19,12.34,18.73Z"/><path class="cls-11" d="M18.08,17.2c-.21,0-.42,0-.63,0s-.16,0-.15.15c0,.28,0,.57,0,.86a.35.35,0,0,0,.37.36c.23,0,.42,0,.48-.29a1.2,1.2,0,0,0,0-.2c0-.12-.07-.3.06-.33a1.81,1.81,0,0,1,.57,0c.06,0,.05.08.06.13a1.18,1.18,0,0,1-.78,1.31,1.12,1.12,0,0,1-1.38-.68,1.15,1.15,0,0,1-.12-.4,12.52,12.52,0,0,1,0-2.37,1.19,1.19,0,0,1,1.74-.81.77.77,0,0,1,.44.63A14.85,14.85,0,0,1,18.87,17c0,.12,0,.17-.17.16Zm-.38-.72c.53,0,.47.09.48-.37s-.15-.53-.43-.53-.42.19-.45.63S17.55,16.44,17.7,16.48Z"/><path class="cls-12" d="M8.9,16.72c0-.73,0-1.46,0-2.19,0-.2-.06-.27-.25-.25H8.47c-.49,0-.57-.12-.47-.61,0-.1.07-.1.14-.1h2.64c.1,0,.15,0,.14.14v0c0,.56,0,.56-.53.56s-.57,0-.57.56c0,1.36,0,2.72,0,4.08,0,.19-.05.26-.25.24s-.49.06-.63,0,0-.41,0-.63C8.9,17.92,8.9,17.32,8.9,16.72Z"/><path class="cls-9" d="M13.08,8.81c0-.38,0-.75,0-1.12a.4.4,0,0,1,.39-.44c.22,0,.38.16.41.44V9.91c0,.32-.16.5-.41.5s-.39-.19-.4-.51V8.81Z"/><path class="cls-13" d="M15.33,17v1.13a.38.38,0,0,1-.4.41.37.37,0,0,1-.39-.41c0-.76,0-1.52,0-2.27a.37.37,0,0,1,.41-.4c.24,0,.37.14.38.4Z"/><path class="cls-6" d="M17.7,16.48c-.15,0-.43.13-.4-.27s.14-.63.45-.63.44.19.43.53S18.23,16.47,17.7,16.48Z"/></g></g></svg>